<svg aria-hidden="true" style="position: absolute; width: 0; height: 0; overflow: hidden;" version="1.1" xmlns="http://www.w3.org/2000/svg" xmlns:xlink="http://www.w3.org/1999/xlink">
  <svg id='login' xmlns="http://www.w3.org/2000/svg" viewBox="0 0 24 24"><g fill="none"><path stroke="currentColor" stroke-width="2" d="M7 7.132v-.52c0-2.146 0-3.219.69-3.817c.69-.598 1.751-.446 3.876-.143l4.282.612c2.457.351 3.685.526 4.418 1.372C21 5.482 21 6.723 21 9.204v5.592c0 2.481 0 3.722-.734 4.568c-.733.846-1.961 1.021-4.417 1.372l-4.283.612c-2.125.303-3.187.455-3.876-.143C7 20.607 7 19.534 7 17.388v-.322"/><path fill="currentColor" d="m16 12l.78-.625l.5.625l-.5.625zM4 13a1 1 0 1 1 0-2zm8.78-6.625l4 5l-1.56 1.25l-4-5zm4 6.25l-4 5l-1.56-1.25l4-5zM16 13H4v-2h12z"/></g></svg>
  <svg id='register' xmlns="http://www.w3.org/2000/svg" viewBox="0 0 24 24"><g fill="none" fill-rule="evenodd"><path d="M24 0v24H0V0zM12.593 23.258l-.011.002l-.071.035l-.02.004l-.014-.004l-.071-.035c-.01-.004-.019-.001-.024.005l-.004.01l-.017.428l.005.02l.01.013l.104.074l.015.004l.012-.004l.104-.074l.012-.016l.004-.017l-.017-.427c-.002-.01-.009-.017-.017-.018m.265-.113l-.013.002l-.185.093l-.01.01l-.003.011l.018.43l.005.012l.008.007l.201.093c.012.004.023 0 .029-.008l.004-.014l-.034-.614c-.003-.012-.01-.02-.02-.022m-.715.002a.023.023 0 0 0-.027.006l-.006.014l-.034.614c0 .012.007.02.017.024l.015-.002l.201-.093l.01-.008l.004-.011l.017-.43l-.003-.012l-.01-.01z"/><path fill="currentColor" d="M16 14a5 5 0 0 1 5 5v2a1 1 0 1 1-2 0v-2a3 3 0 0 0-3-3H8a3 3 0 0 0-3 3v2a1 1 0 1 1-2 0v-2a5 5 0 0 1 5-5zm4-6a1 1 0 0 1 1 1v1h1a1 1 0 1 1 0 2h-1v1a1 1 0 1 1-2 0v-1h-1a1 1 0 1 1 0-2h1V9a1 1 0 0 1 1-1m-8-6a5 5 0 1 1 0 10a5 5 0 0 1 0-10m0 2a3 3 0 1 0 0 6a3 3 0 0 0 0-6"/></g></svg>
  <svg id='settings' xmlns="http://www.w3.org/2000/svg" viewBox="0 0 24 24"><path fill="currentColor" fill-rule="evenodd" d="M14.279 2.152C13.909 2 13.439 2 12.5 2s-1.408 0-1.779.152a2.008 2.008 0 0 0-1.09 1.083c-.094.223-.13.484-.145.863a1.615 1.615 0 0 1-.796 1.353a1.64 1.64 0 0 1-1.579.008c-.338-.178-.583-.276-.825-.308a2.026 2.026 0 0 0-1.49.396c-.318.242-.553.646-1.022 1.453c-.47.807-.704 1.21-.757 1.605c-.07.526.074 1.058.4 1.479c.148.192.357.353.68.555c.477.297.783.803.783 1.361c0 .558-.306 1.064-.782 1.36c-.324.203-.533.364-.682.556a1.99 1.99 0 0 0-.399 1.479c.053.394.287.798.757 1.605c.47.807.704 1.21 1.022 1.453c.424.323.96.465 1.49.396c.242-.032.487-.13.825-.308a1.64 1.64 0 0 1 1.58.008c.486.28.774.795.795 1.353c.015.38.051.64.145.863c.204.49.596.88 1.09 1.083c.37.152.84.152 1.779.152s1.409 0 1.779-.152a2.008 2.008 0 0 0 1.09-1.083c.094-.223.13-.483.145-.863c.02-.558.309-1.074.796-1.353a1.64 1.64 0 0 1 1.579-.008c.338.178.583.276.825.308c.53.07 1.066-.073 1.49-.396c.318-.242.553-.646 1.022-1.453c.47-.807.704-1.21.757-1.605a1.99 1.99 0 0 0-.4-1.479c-.148-.192-.357-.353-.68-.555c-.477-.297-.783-.803-.783-1.361c0-.558.306-1.064.782-1.36c.324-.203.533-.364.682-.556a1.99 1.99 0 0 0 .399-1.479c-.053-.394-.287-.798-.757-1.605c-.47-.807-.704-1.21-1.022-1.453a2.026 2.026 0 0 0-1.49-.396c-.242.032-.487.13-.825.308a1.64 1.64 0 0 1-1.58-.008a1.615 1.615 0 0 1-.795-1.353c-.015-.38-.051-.64-.145-.863a2.007 2.007 0 0 0-1.09-1.083M12.5 15c1.67 0 3.023-1.343 3.023-3S14.169 9 12.5 9c-1.67 0-3.023 1.343-3.023 3s1.354 3 3.023 3" clip-rule="evenodd"/></svg>
  <svg id='home' xmlns="http://www.w3.org/2000/svg" viewBox="0 0 24 24"><path fill="currentColor" d="m12.707 2.293l9 9c.63.63.184 1.707-.707 1.707h-1v6a3 3 0 0 1-3 3h-1v-7a3 3 0 0 0-2.824-2.995L13 12h-2a3 3 0 0 0-3 3v7H7a3 3 0 0 1-3-3v-6H3c-.89 0-1.337-1.077-.707-1.707l9-9a1 1 0 0 1 1.414 0M13 14a1 1 0 0 1 1 1v7h-4v-7a1 1 0 0 1 .883-.993L11 14z"/></svg>
  <symbol id="icon-loader" viewBox="0 0 24 24">
    <path d="M11 2v4c0 0.552 0.448 1 1 1s1-0.448 1-1v-4c0-0.552-0.448-1-1-1s-1 0.448-1 1zM11 18v4c0 0.552 0.448 1 1 1s1-0.448 1-1v-4c0-0.552-0.448-1-1-1s-1 0.448-1 1zM4.223 5.637l2.83 2.83c0.391 0.391 1.024 0.391 1.414 0s0.391-1.024 0-1.414l-2.83-2.83c-0.391-0.391-1.024-0.391-1.414 0s-0.391 1.024 0 1.414zM15.533 16.947l2.83 2.83c0.391 0.391 1.024 0.391 1.414 0s0.391-1.024 0-1.414l-2.83-2.83c-0.391-0.391-1.024-0.391-1.414 0s-0.391 1.024 0 1.414zM2 13h4c0.552 0 1-0.448 1-1s-0.448-1-1-1h-4c-0.552 0-1 0.448-1 1s0.448 1 1 1zM18 13h4c0.552 0 1-0.448 1-1s-0.448-1-1-1h-4c-0.552 0-1 0.448-1 1s0.448 1 1 1zM5.637 19.777l2.83-2.83c0.391-0.391 0.391-1.024 0-1.414s-1.024-0.391-1.414 0l-2.83 2.83c-0.391 0.391-0.391 1.024 0 1.414s1.024 0.391 1.414 0zM16.947 8.467l2.83-2.83c0.391-0.391 0.391-1.024 0-1.414s-1.024-0.391-1.414 0l-2.83 2.83c-0.391 0.391-0.391 1.024 0 1.414s1.024 0.391 1.414 0z"></path>
  </symbol>

  <svg id="user" xmlns="http://www.w3.org/2000/svg" viewBox="0 0 24 24"><path fill="currentColor" fill-opacity="0.25" d="M3 11c0-3.771 0-5.657 1.172-6.828C5.343 3 7.229 3 11 3h2c3.771 0 5.657 0 6.828 1.172C21 5.343 21 7.229 21 11v2c0 3.771 0 5.657-1.172 6.828C18.657 21 16.771 21 13 21h-2c-3.771 0-5.657 0-6.828-1.172C3 18.657 3 16.771 3 13z"/><circle cx="12" cy="10" r="4" fill="currentColor"/><path fill="currentColor" fill-rule="evenodd" d="M18.946 20.253a.232.232 0 0 1-.14.25C17.605 21 15.836 21 13 21h-2c-2.835 0-4.605 0-5.806-.498a.232.232 0 0 1-.14-.249C5.483 17.292 8.429 15 12 15c3.571 0 6.517 2.292 6.946 5.253" clip-rule="evenodd"/></svg>
  <svg id='setting' class="w-6 h-6 text-gray-800 dark:text-white" aria-hidden="true" xmlns="http://www.w3.org/2000/svg" fill="currentColor" viewBox="0 0 24 24">
    <path fill-rule="evenodd" d="M9.6 2.6A2 2 0 0 1 11 2h2a2 2 0 0 1 2 2l.5.3a2 2 0 0 1 2.9 0l1.4 1.3a2 2 0 0 1 0 2.9l.1.5h.1a2 2 0 0 1 2 2v2a2 2 0 0 1-2 2l-.3.5a2 2 0 0 1 0 2.9l-1.3 1.4a2 2 0 0 1-2.9 0l-.5.1v.1a2 2 0 0 1-2 2h-2a2 2 0 0 1-2-2l-.5-.3a2 2 0 0 1-2.9 0l-1.4-1.3a2 2 0 0 1 0-2.9l-.1-.5H4a2 2 0 0 1-2-2v-2a2 2 0 0 1 2-2l.3-.5a2 2 0 0 1 0-2.9l1.3-1.4a2 2 0 0 1 2.9 0l.5-.1V4c0-.5.2-1 .6-1.4ZM8 12a4 4 0 1 1 8 0 4 4 0 0 1-8 0Z" clip-rule="evenodd"/>
  </svg>

  <svg id='note' xmlns="http://www.w3.org/2000/svg" viewBox="0 0 24 24"><path fill="currentColor" d="M21.194 2.806a2.753 2.753 0 0 1 0 3.893l-.496.496a4.61 4.61 0 0 1-.533-.151a5.19 5.19 0 0 1-1.968-1.241a5.19 5.19 0 0 1-1.241-1.968a4.613 4.613 0 0 1-.15-.533l.495-.496a2.753 2.753 0 0 1 3.893 0M14.58 13.313c-.404.404-.606.606-.829.78a4.59 4.59 0 0 1-.848.524c-.255.121-.526.211-1.068.392l-2.858.953a.742.742 0 0 1-.939-.94l.953-2.857c.18-.542.27-.813.392-1.068c.144-.301.32-.586.524-.848c.174-.223.376-.425.78-.83l4.916-4.915a6.7 6.7 0 0 0 1.533 2.36a6.702 6.702 0 0 0 2.36 1.533z"/><path fill="currentColor" d="M20.536 20.536C22 19.07 22 16.714 22 12c0-1.548 0-2.842-.052-3.934l-6.362 6.362c-.351.352-.615.616-.912.847a6.08 6.08 0 0 1-1.125.696c-.34.162-.694.28-1.166.437l-2.932.977a2.242 2.242 0 0 1-2.836-2.836l.977-2.932c.157-.472.275-.826.437-1.166c.19-.399.424-.776.696-1.125c.231-.297.495-.56.847-.912l6.362-6.362C14.842 2 13.548 2 12 2C7.286 2 4.929 2 3.464 3.464C2 4.93 2 7.286 2 12c0 4.714 0 7.071 1.464 8.535C4.93 22 7.286 22 12 22c4.714 0 7.071 0 8.535-1.465"/></svg>

  <svg id='delete' class="w-6 h-6 text-gray-800 dark:text-white" aria-hidden="true" xmlns="http://www.w3.org/2000/svg" fill="currentColor" viewBox="0 0 24 24">
    <path fill-rule="evenodd" d="M8.6 2.6A2 2 0 0 1 10 2h4a2 2 0 0 1 2 2v2h3a1 1 0 1 1 0 2v12a2 2 0 0 1-2 2H7a2 2 0 0 1-2-2V8a1 1 0 0 1 0-2h3V4c0-.5.2-1 .6-1.4ZM10 6h4V4h-4v2Zm1 4a1 1 0 1 0-2 0v8a1 1 0 1 0 2 0v-8Zm4 0a1 1 0 1 0-2 0v8a1 1 0 1 0 2 0v-8Z" clip-rule="evenodd"/>
  </svg>
  <svg id='edit' class="w-6 h-6 text-gray-800 dark:text-white" aria-hidden="true" xmlns="http://www.w3.org/2000/svg" fill="none" viewBox="0 0 24 24">
    <path stroke="currentColor" stroke-linecap="round" stroke-linejoin="round" stroke-width="2" d="m14.3 4.8 2.9 2.9M7 7H4a1 1 0 0 0-1 1v10c0 .6.4 1 1 1h11c.6 0 1-.4 1-1v-4.5m2.4-10a2 2 0 0 1 0 3l-6.8 6.8L8 14l.7-3.6 6.9-6.8a2 2 0 0 1 2.8 0Z"/>
  </svg>

  <svg id='heart' xmlns="http://www.w3.org/2000/svg" viewBox="0 0 256 256"><path fill="currentColor" d="M240 94c0 70-103.79 126.66-108.21 129a8 8 0 0 1-7.58 0C119.79 220.66 16 164 16 94a62.07 62.07 0 0 1 62-62c20.65 0 38.73 8.88 50 23.89C139.27 40.88 157.35 32 178 32a62.07 62.07 0 0 1 62 62"/></svg>

  <svg id='remove' xmlns="http://www.w3.org/2000/svg" viewBox="0 0 24 24"><g fill="none" fill-rule="evenodd"><path d="M24 0v24H0V0zM12.593 23.258l-.011.002l-.071.035l-.02.004l-.014-.004l-.071-.035c-.01-.004-.019-.001-.024.005l-.004.01l-.017.428l.005.02l.01.013l.104.074l.015.004l.012-.004l.104-.074l.012-.016l.004-.017l-.017-.427c-.002-.01-.009-.017-.017-.018m.265-.113l-.013.002l-.185.093l-.01.01l-.003.011l.018.43l.005.012l.008.007l.201.093c.012.004.023 0 .029-.008l.004-.014l-.034-.614c-.003-.012-.01-.02-.02-.022m-.715.002a.023.023 0 0 0-.027.006l-.006.014l-.034.614c0 .012.007.02.017.024l.015-.002l.201-.093l.01-.008l.004-.011l.017-.43l-.003-.012l-.01-.01z"/><path fill="currentColor" d="M16 14a5 5 0 0 1 5 5v2a1 1 0 1 1-2 0v-2a3 3 0 0 0-3-3H8a3 3 0 0 0-3 3v2a1 1 0 1 1-2 0v-2a5 5 0 0 1 5-5zM12 2a5 5 0 1 1 0 10a5 5 0 0 1 0-10m10 8a1 1 0 0 1 .117 1.993L22 12h-4a1 1 0 0 1-.117-1.993L18 10zM12 4a3 3 0 1 0 0 6a3 3 0 0 0 0-6"/></g></svg>

  <svg id='global' xmlns="http://www.w3.org/2000/svg" viewBox="0 0 1024 1024"><path fill="currentColor" d="M854.4 800.9c.2-.3.5-.6.7-.9C920.6 722.1 960 621.7 960 512s-39.4-210.1-104.8-288c-.2-.3-.5-.5-.7-.8c-1.1-1.3-2.1-2.5-3.2-3.7c-.4-.5-.8-.9-1.2-1.4l-4.1-4.7l-.1-.1c-1.5-1.7-3.1-3.4-4.6-5.1l-.1-.1c-3.2-3.4-6.4-6.8-9.7-10.1l-.1-.1l-4.8-4.8l-.3-.3c-1.5-1.5-3-2.9-4.5-4.3c-.5-.5-1-1-1.6-1.5c-1-1-2-1.9-3-2.8c-.3-.3-.7-.6-1-1C736.4 109.2 629.5 64 512 64s-224.4 45.2-304.3 119.2c-.3.3-.7.6-1 1c-1 .9-2 1.9-3 2.9c-.5.5-1 1-1.6 1.5c-1.5 1.4-3 2.9-4.5 4.3l-.3.3l-4.8 4.8l-.1.1c-3.3 3.3-6.5 6.7-9.7 10.1l-.1.1c-1.6 1.7-3.1 3.4-4.6 5.1l-.1.1c-1.4 1.5-2.8 3.1-4.1 4.7c-.4.5-.8.9-1.2 1.4c-1.1 1.2-2.1 2.5-3.2 3.7c-.2.3-.5.5-.7.8C103.4 301.9 64 402.3 64 512s39.4 210.1 104.8 288c.2.3.5.6.7.9l3.1 3.7c.4.5.8.9 1.2 1.4l4.1 4.7c0 .1.1.1.1.2c1.5 1.7 3 3.4 4.6 5l.1.1c3.2 3.4 6.4 6.8 9.6 10.1l.1.1c1.6 1.6 3.1 3.2 4.7 4.7l.3.3c3.3 3.3 6.7 6.5 10.1 9.6c80.1 74 187 119.2 304.5 119.2s224.4-45.2 304.3-119.2a300 300 0 0 0 10-9.6l.3-.3c1.6-1.6 3.2-3.1 4.7-4.7l.1-.1c3.3-3.3 6.5-6.7 9.6-10.1l.1-.1c1.5-1.7 3.1-3.3 4.6-5c0-.1.1-.1.1-.2c1.4-1.5 2.8-3.1 4.1-4.7c.4-.5.8-.9 1.2-1.4a99 99 0 0 0 3.3-3.7m4.1-142.6c-13.8 32.6-32 62.8-54.2 90.2a444.07 444.07 0 0 0-81.5-55.9c11.6-46.9 18.8-98.4 20.7-152.6H887c-3 40.9-12.6 80.6-28.5 118.3M887 484H743.5c-1.9-54.2-9.1-105.7-20.7-152.6c29.3-15.6 56.6-34.4 81.5-55.9A373.86 373.86 0 0 1 887 484M658.3 165.5c39.7 16.8 75.8 40 107.6 69.2a394.72 394.72 0 0 1-59.4 41.8c-15.7-45-35.8-84.1-59.2-115.4c3.7 1.4 7.4 2.9 11 4.4m-90.6 700.6c-9.2 7.2-18.4 12.7-27.7 16.4V697a389.1 389.1 0 0 1 115.7 26.2c-8.3 24.6-17.9 47.3-29 67.8c-17.4 32.4-37.8 58.3-59 75.1m59-633.1c11 20.6 20.7 43.3 29 67.8A389.1 389.1 0 0 1 540 327V141.6c9.2 3.7 18.5 9.1 27.7 16.4c21.2 16.7 41.6 42.6 59 75M540 640.9V540h147.5c-1.6 44.2-7.1 87.1-16.3 127.8l-.3 1.2A445.02 445.02 0 0 0 540 640.9m0-156.9V383.1c45.8-2.8 89.8-12.5 130.9-28.1l.3 1.2c9.2 40.7 14.7 83.5 16.3 127.8zm-56 56v100.9c-45.8 2.8-89.8 12.5-130.9 28.1l-.3-1.2c-9.2-40.7-14.7-83.5-16.3-127.8zm-147.5-56c1.6-44.2 7.1-87.1 16.3-127.8l.3-1.2c41.1 15.6 85 25.3 130.9 28.1V484zM484 697v185.4c-9.2-3.7-18.5-9.1-27.7-16.4c-21.2-16.7-41.7-42.7-59.1-75.1c-11-20.6-20.7-43.3-29-67.8c37.2-14.6 75.9-23.3 115.8-26.1m0-370a389.1 389.1 0 0 1-115.7-26.2c8.3-24.6 17.9-47.3 29-67.8c17.4-32.4 37.8-58.4 59.1-75.1c9.2-7.2 18.4-12.7 27.7-16.4V327zM365.7 165.5c3.7-1.5 7.3-3 11-4.4c-23.4 31.3-43.5 70.4-59.2 115.4c-21-12-40.9-26-59.4-41.8c31.8-29.2 67.9-52.4 107.6-69.2M165.5 365.7c13.8-32.6 32-62.8 54.2-90.2c24.9 21.5 52.2 40.3 81.5 55.9c-11.6 46.9-18.8 98.4-20.7 152.6H137c3-40.9 12.6-80.6 28.5-118.3M137 540h143.5c1.9 54.2 9.1 105.7 20.7 152.6a444.07 444.07 0 0 0-81.5 55.9A373.86 373.86 0 0 1 137 540m228.7 318.5c-39.7-16.8-75.8-40-107.6-69.2c18.5-15.8 38.4-29.7 59.4-41.8c15.7 45 35.8 84.1 59.2 115.4c-3.7-1.4-7.4-2.9-11-4.4m292.6 0c-3.7 1.5-7.3 3-11 4.4c23.4-31.3 43.5-70.4 59.2-115.4c21 12 40.9 26 59.4 41.8a373.81 373.81 0 0 1-107.6 69.2"/></svg>
</svg>

